<svg width="25" height="25" viewBox="0 0 25 25" fill="none" xmlns="http://www.w3.org/2000/svg">
<path d="M12.24 14.28V9.82286H23.7086C23.88 10.5771 24.0171 11.28 24.0171 12.2914C24.0171 19.1486 19.32 24.0171 12.2571 24.0171C5.19429 24.0171 0 18.6171 0 12C0 5.38286 5.48571 0 12.24 0C15.5486 0 18.3086 1.18286 20.4343 3.13714L16.9543 6.44571C16.08 5.62286 14.5371 4.66286 12.24 4.66286C8.19429 4.66286 4.88571 7.97143 4.88571 12C4.88571 16.0286 8.19429 19.3371 12.24 19.3371C16.9371 19.3371 18.6514 16.1486 18.9771 14.28H12.2229H12.24Z" fill="white"/>
</svg>
